<mxfile host="65bd71144e">
    <diagram id="HwiEDQGAKOgh0EpWq_3J" name="Page-1">
        <mxGraphModel dx="1781" dy="642" grid="1" gridSize="10" guides="1" tooltips="1" connect="1" arrows="1" fold="1" page="1" pageScale="1" pageWidth="850" pageHeight="1100" math="0" shadow="0">
            <root>
                <mxCell id="0"/>
                <mxCell id="1" parent="0"/>
                <mxCell id="40" style="edgeStyle=none;html=0;labelBorderColor=default;startArrow=none;startFill=0;endArrow=none;endFill=0;entryX=0.5;entryY=0;entryDx=0;entryDy=0;" edge="1" parent="1" source="2" target="6">
                    <mxGeometry relative="1" as="geometry">
                        <mxPoint x="415" y="190" as="sourcePoint"/>
                        <mxPoint x="415" y="250" as="targetPoint"/>
                    </mxGeometry>
                </mxCell>
                <mxCell id="42" value="&lt;font style=&quot;font-size: 11px&quot;&gt;1&lt;/font&gt;" style="edgeLabel;html=1;align=center;verticalAlign=middle;resizable=0;points=[];fontSize=14;" vertex="1" connectable="0" parent="40">
                    <mxGeometry x="-0.4092" relative="1" as="geometry">
                        <mxPoint x="-5" y="-31" as="offset"/>
                    </mxGeometry>
                </mxCell>
                <mxCell id="43" value="1..*" style="edgeLabel;html=1;align=center;verticalAlign=middle;resizable=0;points=[];fontSize=11;" vertex="1" connectable="0" parent="40">
                    <mxGeometry x="0.617" y="1" relative="1" as="geometry">
                        <mxPoint x="-16" y="14" as="offset"/>
                    </mxGeometry>
                </mxCell>
                <mxCell id="2" value="Hochschulmitarbeiter" style="swimlane;fontStyle=0;childLayout=stackLayout;horizontal=1;startSize=26;fillColor=none;horizontalStack=0;resizeParent=1;resizeParentMax=0;resizeLast=0;collapsible=1;marginBottom=0;" vertex="1" parent="1">
                    <mxGeometry x="345" y="60" width="140" height="104" as="geometry"/>
                </mxCell>
                <mxCell id="3" value="name : String" style="text;strokeColor=none;fillColor=none;align=left;verticalAlign=top;spacingLeft=4;spacingRight=4;overflow=hidden;rotatable=0;points=[[0,0.5],[1,0.5]];portConstraint=eastwest;" vertex="1" parent="2">
                    <mxGeometry y="26" width="140" height="26" as="geometry"/>
                </mxCell>
                <mxCell id="4" value="mail : String" style="text;strokeColor=none;fillColor=none;align=left;verticalAlign=top;spacingLeft=4;spacingRight=4;overflow=hidden;rotatable=0;points=[[0,0.5],[1,0.5]];portConstraint=eastwest;" vertex="1" parent="2">
                    <mxGeometry y="52" width="140" height="26" as="geometry"/>
                </mxCell>
                <mxCell id="5" value="telNr : String" style="text;strokeColor=none;fillColor=none;align=left;verticalAlign=top;spacingLeft=4;spacingRight=4;overflow=hidden;rotatable=0;points=[[0,0.5],[1,0.5]];portConstraint=eastwest;" vertex="1" parent="2">
                    <mxGeometry y="78" width="140" height="26" as="geometry"/>
                </mxCell>
                <mxCell id="6" value="Dienstreiseantrag" style="swimlane;fontStyle=0;childLayout=stackLayout;horizontal=1;startSize=26;fillColor=none;horizontalStack=0;resizeParent=1;resizeParentMax=0;resizeLast=0;collapsible=1;marginBottom=0;" vertex="1" parent="1">
                    <mxGeometry x="330" y="290" width="170" height="256" as="geometry"/>
                </mxCell>
                <mxCell id="7" value="startDatum : String" style="text;strokeColor=none;fillColor=none;align=left;verticalAlign=top;spacingLeft=4;spacingRight=4;overflow=hidden;rotatable=0;points=[[0,0.5],[1,0.5]];portConstraint=eastwest;" vertex="1" parent="6">
                    <mxGeometry y="26" width="170" height="26" as="geometry"/>
                </mxCell>
                <mxCell id="8" value="kosten        : String" style="text;strokeColor=none;fillColor=none;align=left;verticalAlign=top;spacingLeft=4;spacingRight=4;overflow=hidden;rotatable=0;points=[[0,0.5],[1,0.5]];portConstraint=eastwest;" vertex="1" parent="6">
                    <mxGeometry y="52" width="170" height="26" as="geometry"/>
                </mxCell>
                <mxCell id="64" value="dauer         : String         " style="text;strokeColor=none;fillColor=none;align=left;verticalAlign=top;spacingLeft=4;spacingRight=4;overflow=hidden;rotatable=0;points=[[0,0.5],[1,0.5]];portConstraint=eastwest;" vertex="1" parent="6">
                    <mxGeometry y="78" width="170" height="26" as="geometry"/>
                </mxCell>
                <mxCell id="9" value="reiseziel       : String         " style="text;strokeColor=none;fillColor=none;align=left;verticalAlign=top;spacingLeft=4;spacingRight=4;overflow=hidden;rotatable=0;points=[[0,0.5],[1,0.5]];portConstraint=eastwest;" vertex="1" parent="6">
                    <mxGeometry y="104" width="170" height="26" as="geometry"/>
                </mxCell>
                <mxCell id="10" value="kGenehmigt : boolean" style="text;strokeColor=none;fillColor=none;align=left;verticalAlign=top;spacingLeft=4;spacingRight=4;overflow=hidden;rotatable=0;points=[[0,0.5],[1,0.5]];portConstraint=eastwest;" vertex="1" parent="6">
                    <mxGeometry y="130" width="170" height="26" as="geometry"/>
                </mxCell>
                <mxCell id="11" value="vGenehmigt : boolean" style="text;strokeColor=none;fillColor=none;align=left;verticalAlign=top;spacingLeft=4;spacingRight=4;overflow=hidden;rotatable=0;points=[[0,0.5],[1,0.5]];portConstraint=eastwest;" vertex="1" parent="6">
                    <mxGeometry y="156" width="170" height="26" as="geometry"/>
                </mxCell>
                <mxCell id="12" value="vorgesetzter : Vorgesetzter" style="text;strokeColor=none;fillColor=none;align=left;verticalAlign=top;spacingLeft=4;spacingRight=4;overflow=hidden;rotatable=0;points=[[0,0.5],[1,0.5]];portConstraint=eastwest;" vertex="1" parent="6">
                    <mxGeometry y="182" width="170" height="26" as="geometry"/>
                </mxCell>
                <mxCell id="13" value="kVerantwortl. : Kostenstellen-&#10;                        verantwortl." style="text;strokeColor=none;fillColor=none;align=left;verticalAlign=top;spacingLeft=4;spacingRight=4;overflow=hidden;rotatable=0;points=[[0,0.5],[1,0.5]];portConstraint=eastwest;" vertex="1" parent="6">
                    <mxGeometry y="208" width="170" height="48" as="geometry"/>
                </mxCell>
                <mxCell id="49" style="edgeStyle=none;html=0;exitX=0.75;exitY=0;exitDx=0;exitDy=0;entryX=0.115;entryY=1.003;entryDx=0;entryDy=0;entryPerimeter=0;labelBorderColor=default;fontSize=11;startArrow=none;startFill=0;endArrow=none;endFill=0;" edge="1" parent="1" source="15" target="5">
                    <mxGeometry relative="1" as="geometry"/>
                </mxCell>
                <mxCell id="50" value="1" style="edgeLabel;html=1;align=center;verticalAlign=middle;resizable=0;points=[];fontSize=11;" vertex="1" connectable="0" parent="49">
                    <mxGeometry x="0.3191" y="2" relative="1" as="geometry">
                        <mxPoint x="32" y="-35" as="offset"/>
                    </mxGeometry>
                </mxCell>
                <mxCell id="51" value="1..*" style="edgeLabel;html=1;align=center;verticalAlign=middle;resizable=0;points=[];fontSize=11;" vertex="1" connectable="0" parent="49">
                    <mxGeometry x="-0.4081" y="-4" relative="1" as="geometry">
                        <mxPoint x="-66" y="24" as="offset"/>
                    </mxGeometry>
                </mxCell>
                <mxCell id="52" value="◀&amp;nbsp; erstellt" style="edgeLabel;html=1;align=center;verticalAlign=middle;resizable=0;points=[];fontSize=11;rotation=325;" vertex="1" connectable="0" parent="49">
                    <mxGeometry x="0.3714" y="1" relative="1" as="geometry">
                        <mxPoint x="-44" y="17" as="offset"/>
                    </mxGeometry>
                </mxCell>
                <mxCell id="15" value="Erstattungsantrag" style="swimlane;fontStyle=0;childLayout=stackLayout;horizontal=1;startSize=26;fillColor=none;horizontalStack=0;resizeParent=1;resizeParentMax=0;resizeLast=0;collapsible=1;marginBottom=0;" vertex="1" parent="1">
                    <mxGeometry x="60" y="290" width="160" height="78" as="geometry"/>
                </mxCell>
                <mxCell id="16" value="dAntrag : Dienstreiseantrag" style="text;strokeColor=none;fillColor=none;align=left;verticalAlign=top;spacingLeft=4;spacingRight=4;overflow=hidden;rotatable=0;points=[[0,0.5],[1,0.5]];portConstraint=eastwest;" vertex="1" parent="15">
                    <mxGeometry y="26" width="160" height="26" as="geometry"/>
                </mxCell>
                <mxCell id="17" value="hStelle : String" style="text;strokeColor=none;fillColor=none;align=left;verticalAlign=top;spacingLeft=4;spacingRight=4;overflow=hidden;rotatable=0;points=[[0,0.5],[1,0.5]];portConstraint=eastwest;" vertex="1" parent="15">
                    <mxGeometry y="52" width="160" height="26" as="geometry"/>
                </mxCell>
                <mxCell id="19" value="Kostenstellen-&#10;verantwortlicher" style="swimlane;fontStyle=0;childLayout=stackLayout;horizontal=1;startSize=26;fillColor=none;horizontalStack=0;resizeParent=1;resizeParentMax=0;resizeLast=0;collapsible=1;marginBottom=0;" vertex="1" parent="1">
                    <mxGeometry x="630" y="164" width="140" height="104" as="geometry"/>
                </mxCell>
                <mxCell id="20" value="name : String&#10;" style="text;strokeColor=none;fillColor=none;align=left;verticalAlign=top;spacingLeft=4;spacingRight=4;overflow=hidden;rotatable=0;points=[[0,0.5],[1,0.5]];portConstraint=eastwest;" vertex="1" parent="19">
                    <mxGeometry y="26" width="140" height="26" as="geometry"/>
                </mxCell>
                <mxCell id="21" value="mail : String" style="text;strokeColor=none;fillColor=none;align=left;verticalAlign=top;spacingLeft=4;spacingRight=4;overflow=hidden;rotatable=0;points=[[0,0.5],[1,0.5]];portConstraint=eastwest;" vertex="1" parent="19">
                    <mxGeometry y="52" width="140" height="26" as="geometry"/>
                </mxCell>
                <mxCell id="22" value="telNr : String" style="text;strokeColor=none;fillColor=none;align=left;verticalAlign=top;spacingLeft=4;spacingRight=4;overflow=hidden;rotatable=0;points=[[0,0.5],[1,0.5]];portConstraint=eastwest;" vertex="1" parent="19">
                    <mxGeometry y="78" width="140" height="26" as="geometry"/>
                </mxCell>
                <mxCell id="23" value="Vorgesetzter" style="swimlane;fontStyle=0;childLayout=stackLayout;horizontal=1;startSize=26;fillColor=none;horizontalStack=0;resizeParent=1;resizeParentMax=0;resizeLast=0;collapsible=1;marginBottom=0;" vertex="1" parent="1">
                    <mxGeometry x="900" y="164" width="140" height="104" as="geometry"/>
                </mxCell>
                <mxCell id="24" value="name : String&#10;" style="text;strokeColor=none;fillColor=none;align=left;verticalAlign=top;spacingLeft=4;spacingRight=4;overflow=hidden;rotatable=0;points=[[0,0.5],[1,0.5]];portConstraint=eastwest;" vertex="1" parent="23">
                    <mxGeometry y="26" width="140" height="26" as="geometry"/>
                </mxCell>
                <mxCell id="25" value="mail : String" style="text;strokeColor=none;fillColor=none;align=left;verticalAlign=top;spacingLeft=4;spacingRight=4;overflow=hidden;rotatable=0;points=[[0,0.5],[1,0.5]];portConstraint=eastwest;" vertex="1" parent="23">
                    <mxGeometry y="52" width="140" height="26" as="geometry"/>
                </mxCell>
                <mxCell id="26" value="telNr : String" style="text;strokeColor=none;fillColor=none;align=left;verticalAlign=top;spacingLeft=4;spacingRight=4;overflow=hidden;rotatable=0;points=[[0,0.5],[1,0.5]];portConstraint=eastwest;" vertex="1" parent="23">
                    <mxGeometry y="78" width="140" height="26" as="geometry"/>
                </mxCell>
                <mxCell id="28" style="html=1;entryX=1;entryY=0.5;entryDx=0;entryDy=0;endArrow=openThin;endFill=0;exitX=0;exitY=0.5;exitDx=0;exitDy=0;startArrow=openThin;startFill=0;" edge="1" parent="1" source="25" target="21">
                    <mxGeometry relative="1" as="geometry">
                        <mxPoint x="880" y="229" as="sourcePoint"/>
                    </mxGeometry>
                </mxCell>
                <object label="" id="29">
                    <mxCell style="edgeStyle=none;html=1;entryX=1;entryY=0.5;entryDx=0;entryDy=0;startArrow=none;startFill=0;endArrow=none;endFill=0;exitX=0;exitY=0.5;exitDx=0;exitDy=0;textDirection=ltr;verticalAlign=middle;horizontal=1;" edge="1" parent="1">
                        <mxGeometry relative="1" as="geometry">
                            <mxPoint x="900" y="253.0000000000001" as="sourcePoint"/>
                            <mxPoint x="500.0000000000001" y="405" as="targetPoint"/>
                        </mxGeometry>
                    </mxCell>
                </object>
                <mxCell id="57" value="1..*" style="edgeLabel;html=1;align=center;verticalAlign=middle;resizable=0;points=[];fontSize=11;" vertex="1" connectable="0" parent="29">
                    <mxGeometry x="0.5707" y="3" relative="1" as="geometry">
                        <mxPoint x="-77" y="15" as="offset"/>
                    </mxGeometry>
                </mxCell>
                <mxCell id="58" value="1" style="edgeLabel;html=1;align=center;verticalAlign=middle;resizable=0;points=[];fontSize=11;" vertex="1" connectable="0" parent="29">
                    <mxGeometry x="-0.6581" y="2" relative="1" as="geometry">
                        <mxPoint x="48" y="-31" as="offset"/>
                    </mxGeometry>
                </mxCell>
                <mxCell id="32" value="" style="edgeStyle=none;exitX=0;exitY=-0.071;exitDx=0;exitDy=0;entryX=1;entryY=0;entryDx=0;entryDy=0;startArrow=none;startFill=0;endArrow=none;endFill=0;verticalAlign=middle;textDirection=ltr;labelBorderColor=default;exitPerimeter=0;" edge="1" parent="1" source="22" target="6">
                    <mxGeometry relative="1" as="geometry"/>
                </mxCell>
                <mxCell id="55" value="1" style="edgeLabel;html=1;align=center;verticalAlign=middle;resizable=0;points=[];fontSize=11;" vertex="1" connectable="0" parent="32">
                    <mxGeometry x="-0.3807" relative="1" as="geometry">
                        <mxPoint x="31" y="-26" as="offset"/>
                    </mxGeometry>
                </mxCell>
                <mxCell id="56" value="1..*" style="edgeLabel;html=1;align=center;verticalAlign=middle;resizable=0;points=[];fontSize=11;" vertex="1" connectable="0" parent="32">
                    <mxGeometry x="0.8043" y="2" relative="1" as="geometry">
                        <mxPoint x="-13" y="-9" as="offset"/>
                    </mxGeometry>
                </mxCell>
                <mxCell id="33" value="◀ prüft" style="text;html=1;align=center;verticalAlign=middle;resizable=0;points=[];autosize=1;strokeColor=none;fillColor=none;rotation=339;" vertex="1" parent="1">
                    <mxGeometry x="540" y="240" width="50" height="20" as="geometry"/>
                </mxCell>
                <mxCell id="38" value="◀ prüft" style="text;html=1;align=center;verticalAlign=middle;resizable=0;points=[];autosize=1;strokeColor=none;fillColor=none;rotation=340;" vertex="1" parent="1">
                    <mxGeometry x="660" y="310" width="50" height="20" as="geometry"/>
                </mxCell>
                <mxCell id="48" style="edgeStyle=none;html=0;exitX=0.5;exitY=0;exitDx=0;exitDy=0;entryX=0;entryY=0.5;entryDx=0;entryDy=0;labelBorderColor=default;fontSize=11;startArrow=none;startFill=0;endArrow=none;endFill=0;" edge="1" parent="1" source="44" target="4">
                    <mxGeometry relative="1" as="geometry"/>
                </mxCell>
                <mxCell id="53" value="1" style="edgeLabel;html=1;align=center;verticalAlign=middle;resizable=0;points=[];fontSize=11;" vertex="1" connectable="0" parent="48">
                    <mxGeometry x="0.1922" y="1" relative="1" as="geometry">
                        <mxPoint x="-303" y="79" as="offset"/>
                    </mxGeometry>
                </mxCell>
                <mxCell id="54" value="1" style="edgeLabel;html=1;align=center;verticalAlign=middle;resizable=0;points=[];fontSize=11;" vertex="1" connectable="0" parent="48">
                    <mxGeometry x="0.352" y="3" relative="1" as="geometry">
                        <mxPoint x="140" y="-56" as="offset"/>
                    </mxGeometry>
                </mxCell>
                <mxCell id="59" value="schickt Anlagebescheid ▶" style="edgeLabel;html=1;align=center;verticalAlign=middle;resizable=0;points=[];fontSize=11;rotation=342;" vertex="1" connectable="0" parent="48">
                    <mxGeometry x="-0.2524" relative="1" as="geometry">
                        <mxPoint x="33" y="-28" as="offset"/>
                    </mxGeometry>
                </mxCell>
                <mxCell id="44" value="Haushaltsstelle" style="swimlane;fontStyle=0;childLayout=stackLayout;horizontal=1;startSize=26;fillColor=none;horizontalStack=0;resizeParent=1;resizeParentMax=0;resizeLast=0;collapsible=1;marginBottom=0;" vertex="1" parent="1">
                    <mxGeometry x="-260" y="290" width="160" height="52" as="geometry"/>
                </mxCell>
                <mxCell id="65" style="edgeStyle=none;html=0;entryX=1;entryY=0.5;entryDx=0;entryDy=0;labelBorderColor=default;fontSize=11;startArrow=none;startFill=0;endArrow=none;endFill=0;exitX=0;exitY=0.5;exitDx=0;exitDy=0;" edge="1" parent="1" source="7" target="16">
                    <mxGeometry relative="1" as="geometry">
                        <mxPoint x="310" y="329" as="sourcePoint"/>
                    </mxGeometry>
                </mxCell>
                <mxCell id="66" value="1" style="edgeLabel;html=1;align=center;verticalAlign=middle;resizable=0;points=[];fontSize=11;" vertex="1" connectable="0" parent="65">
                    <mxGeometry x="0.3483" y="-4" relative="1" as="geometry">
                        <mxPoint x="-26" y="-5" as="offset"/>
                    </mxGeometry>
                </mxCell>
                <mxCell id="67" value="1" style="edgeLabel;html=1;align=center;verticalAlign=middle;resizable=0;points=[];fontSize=11;" vertex="1" connectable="0" parent="65">
                    <mxGeometry x="-0.4747" y="2" relative="1" as="geometry">
                        <mxPoint x="18" y="-11" as="offset"/>
                    </mxGeometry>
                </mxCell>
                <mxCell id="68" style="edgeStyle=none;html=0;exitX=0;exitY=0.5;exitDx=0;exitDy=0;entryX=1;entryY=0.75;entryDx=0;entryDy=0;labelBorderColor=default;fontSize=11;startArrow=none;startFill=0;endArrow=none;endFill=0;" edge="1" parent="1" source="16" target="44">
                    <mxGeometry relative="1" as="geometry"/>
                </mxCell>
                <mxCell id="69" value="bearbeitet ▶" style="edgeLabel;html=1;align=center;verticalAlign=middle;resizable=0;points=[];fontSize=11;" vertex="1" connectable="0" parent="68">
                    <mxGeometry x="0.1967" relative="1" as="geometry">
                        <mxPoint x="16" y="-13" as="offset"/>
                    </mxGeometry>
                </mxCell>
                <mxCell id="70" value="1" style="edgeLabel;html=1;align=center;verticalAlign=middle;resizable=0;points=[];fontSize=11;" vertex="1" connectable="0" parent="68">
                    <mxGeometry x="0.8151" relative="1" as="geometry">
                        <mxPoint x="-5" y="-9" as="offset"/>
                    </mxGeometry>
                </mxCell>
                <mxCell id="71" value="1..*" style="edgeLabel;html=1;align=center;verticalAlign=middle;resizable=0;points=[];fontSize=11;" vertex="1" connectable="0" parent="68">
                    <mxGeometry x="-0.7507" y="-1" relative="1" as="geometry">
                        <mxPoint y="-8" as="offset"/>
                    </mxGeometry>
                </mxCell>
                <mxCell id="75" value="" style="endArrow=classic;html=1;labelBorderColor=default;fontSize=11;curved=1;" edge="1" parent="1">
                    <mxGeometry width="50" height="50" relative="1" as="geometry">
                        <mxPoint x="425" y="230" as="sourcePoint"/>
                        <mxPoint x="590" y="90" as="targetPoint"/>
                        <Array as="points">
                            <mxPoint x="485" y="230"/>
                        </Array>
                    </mxGeometry>
                </mxCell>
                <mxCell id="76" value="sidenote: Mitarbeiter hat keine spezifische, sondern&lt;br&gt;mehrere mögliche Rollen in Bezug auf den Antrag&lt;br&gt;(erstellt/ändert/storniert)" style="text;html=1;align=center;verticalAlign=middle;resizable=0;points=[];autosize=1;strokeColor=none;fillColor=none;fontSize=11;" vertex="1" parent="1">
                    <mxGeometry x="565" y="50" width="270" height="40" as="geometry"/>
                </mxCell>
            </root>
        </mxGraphModel>
    </diagram>
</mxfile>